<svg xmlns="http://www.w3.org/2000/svg" width="4000" height="4000" viewBox="0 0 4000 4000" version="1.1">
	<path d="M 1971.500 892.700 C 1951.238 894.540, 1929.995 902.251, 1912 914.297 C 1902.227 920.840, 1886.708 936.424, 1880.016 946.417 C 1871.866 958.586, 1868.381 967.017, 1851.663 1015 C 1843.136 1039.475, 1835.889 1060.186, 1835.559 1061.025 C 1835.084 1062.232, 1830.937 1062.903, 1815.729 1064.238 C 1796.873 1065.892, 1658.389 1078.602, 1605.856 1083.499 C 1569.074 1086.928, 1558.818 1089.352, 1540.337 1098.982 C 1500.339 1119.825, 1473.989 1162.861, 1474.003 1207.322 C 1474.004 1211.820, 1476.483 1242.500, 1479.511 1275.500 C 1482.539 1308.500, 1485.903 1345.175, 1486.985 1357 C 1488.067 1368.825, 1493.470 1427.775, 1498.991 1488 C 1504.511 1548.225, 1509.935 1607.400, 1511.043 1619.500 C 1512.151 1631.600, 1515.533 1668.275, 1518.558 1701 C 1521.584 1733.725, 1524.333 1763.923, 1524.667 1768.108 L 1525.274 1775.715 1515.887 1780.725 C 1505.243 1786.405, 1491.652 1793.539, 1472 1803.763 C 1444.436 1818.102, 1390.208 1846.399, 1381.500 1850.986 C 1376.550 1853.594, 1366.425 1858.890, 1359 1862.754 C 1351.575 1866.619, 1325.700 1880.123, 1301.500 1892.762 C 1248.865 1920.253, 1164.723 1964.174, 1086 2005.250 C 1054.375 2021.752, 1024.450 2037.396, 1019.500 2040.016 C 1014.550 2042.635, 984.400 2058.381, 952.500 2075.006 C 920.600 2091.631, 890 2107.604, 884.500 2110.501 C 879 2113.399, 852.900 2127.018, 826.500 2140.766 C 746.826 2182.257, 663.224 2225.917, 658.731 2228.381 C 656.404 2229.657, 647.525 2234.324, 639 2238.753 C 570.863 2274.151, 537.475 2291.861, 531.500 2295.774 C 522.378 2301.748, 503.661 2320.474, 497.292 2330 C 483.102 2351.222, 476.389 2372.019, 475.320 2398.078 C 474.604 2415.535, 476.310 2427.955, 481.627 2443.992 C 484.673 2453.176, 503.497 2490.736, 528.993 2538.500 C 531.048 2542.350, 539.610 2558.775, 548.020 2575 C 556.429 2591.225, 566.095 2608.775, 569.498 2614 C 590.633 2646.447, 626.312 2667.474, 666.170 2670.971 C 685.213 2672.642, 707 2669.459, 724.574 2662.437 C 728.383 2660.915, 755.800 2646.986, 785.500 2631.484 C 815.200 2615.982, 846.700 2599.560, 855.500 2594.991 C 875.138 2584.796, 973.553 2533.363, 988 2525.746 C 993.775 2522.701, 1024.150 2506.836, 1055.500 2490.490 C 1086.850 2474.144, 1116.550 2458.628, 1121.500 2456.009 C 1126.450 2453.390, 1158.400 2436.693, 1192.500 2418.905 C 1226.600 2401.117, 1286.900 2369.632, 1326.500 2348.938 C 1366.100 2328.245, 1398.617 2311.397, 1398.759 2311.499 C 1399.023 2311.689, 1382.029 2360.775, 1334.007 2498.533 C 1319.238 2540.901, 1306.263 2579.151, 1305.175 2583.533 C 1302.362 2594.856, 1301.822 2599.731, 1301.857 2613.488 C 1301.973 2659.004, 1328.053 2701.485, 1368.585 2722.179 C 1379.148 2727.571, 1379.644 2727.757, 1433.500 2746.491 C 1525.942 2778.648, 1619.521 2811.355, 1619.882 2811.635 C 1620.238 2811.911, 1623.880 2849.088, 1627.559 2890 C 1629.550 2912.141, 1632.092 2924.822, 1637.112 2937.666 C 1645.909 2960.169, 1661.920 2980.192, 1682.255 2994.120 C 1700.142 3006.371, 1718.372 3012.997, 1740.308 3015.219 C 1753.197 3016.525, 1734.008 3018.141, 2049.829 2989.146 C 2106.312 2983.961, 2112.548 2983.554, 2116.329 2984.815 C 2118.623 2985.580, 2148.175 2995.865, 2182 3007.671 C 2215.825 3019.477, 2253.850 3032.741, 2266.500 3037.147 C 2279.150 3041.553, 2313.125 3053.410, 2342 3063.495 C 2420.063 3090.762, 2437.779 3096.926, 2445.500 3099.507 C 2476.171 3109.762, 2509.106 3107.483, 2538.500 3093.072 C 2552.765 3086.079, 2563.764 3078.110, 2574.137 3067.252 C 2587.976 3052.767, 2595.597 3039.600, 2603.804 3016 C 2606.577 3008.025, 2611.853 2992.950, 2615.528 2982.500 C 2619.203 2972.050, 2624.238 2957.505, 2626.717 2950.178 C 2630.196 2939.892, 2631.711 2936.664, 2633.362 2936.018 C 2634.538 2935.557, 2691.075 2930.166, 2759 2924.039 C 2826.925 2917.911, 2886.268 2912.221, 2890.874 2911.393 C 2915.014 2907.057, 2936.441 2896.217, 2953.850 2879.534 C 2973.066 2861.119, 2984.384 2841.277, 2990.089 2816 C 2992.966 2803.254, 2993.450 2788.136, 2991.608 2768.500 C 2990.731 2759.150, 2983.721 2682.875, 2976.030 2599 C 2968.339 2515.125, 2957.978 2402.175, 2953.007 2348 C 2945.507 2266.269, 2934.536 2146.514, 2929.916 2095.956 L 2928.862 2084.413 2943.521 2042.456 C 2951.584 2019.380, 2963.120 1986.325, 2969.156 1969 C 2981.029 1934.928, 2993.707 1898.606, 3022.035 1817.500 C 3032.024 1788.900, 3045.288 1750.875, 3051.510 1733 C 3057.731 1715.125, 3067.850 1686.100, 3073.996 1668.500 C 3080.141 1650.900, 3091.612 1618.050, 3099.486 1595.500 C 3107.360 1572.950, 3119.058 1539.425, 3125.481 1521 C 3131.904 1502.575, 3142.313 1472.730, 3148.612 1454.678 C 3163.183 1412.920, 3164.033 1409.501, 3164.695 1390 C 3165.300 1372.200, 3163.976 1362.229, 3158.981 1346.942 C 3148.868 1315.989, 3123.189 1286.936, 3094.411 1273.887 C 3088.768 1271.328, 2975.556 1231.390, 2870.506 1194.899 C 2857.859 1190.506, 2847.234 1186.594, 2846.895 1186.206 C 2846.556 1185.818, 2844.373 1164.350, 2842.046 1138.500 C 2839.718 1112.650, 2837.197 1087.896, 2836.444 1083.490 C 2828.255 1035.617, 2788.364 994.713, 2740.500 985.111 C 2724.978 981.997, 2715.451 981.640, 2696 983.439 C 2659.434 986.823, 2557.733 996.178, 2488.500 1002.526 C 2448.900 1006.158, 2402.550 1010.417, 2385.500 1011.992 L 2354.500 1014.855 2186.905 956.426 C 2094.728 924.291, 2015.909 897.128, 2011.752 896.065 C 1999.065 892.820, 1984.022 891.562, 1971.500 892.700 M 1966.734 929.584 C 1950.003 932.608, 1935.239 940.187, 1922.296 952.394 C 1912.652 961.490, 1905.215 972.211, 1901.084 982.975 C 1899.495 987.114, 1867.742 1077.800, 1830.520 1184.500 C 1793.299 1291.200, 1736.729 1453.336, 1704.809 1544.803 C 1672.889 1636.270, 1647.021 1711.355, 1647.324 1711.658 C 1647.627 1711.961, 1651.166 1710.420, 1655.188 1708.234 C 1659.209 1706.047, 1668.125 1701.339, 1675 1697.771 C 1681.875 1694.203, 1698.300 1685.635, 1711.500 1678.732 C 1724.700 1671.829, 1748.925 1659.181, 1765.334 1650.625 C 1798.945 1633.100, 1792.564 1635.121, 1835 1628.562 C 1847.375 1626.649, 1876.175 1622.155, 1899 1618.576 C 1921.825 1614.996, 1958.050 1609.336, 1979.500 1605.999 C 2030.634 1598.045, 2073.126 1591.409, 2197 1572.034 C 2253.375 1563.216, 2302.425 1556.007, 2306 1556.013 C 2334.516 1556.061, 2356.780 1582.660, 2352.004 1610.974 C 2349.578 1625.360, 2348.178 1627.171, 2302.905 1674.500 C 2261.065 1718.239, 2253.012 1726.661, 2233.500 1747.090 C 2221.600 1759.549, 2183.752 1799.037, 2167.453 1816 C 2157.957 1825.883, 2111.818 1874.135, 2068.044 1919.961 C 2057.295 1931.214, 2043.058 1946.064, 2036.407 1952.961 C 2029.756 1959.857, 2016.252 1973.979, 2006.399 1984.342 L 1988.485 2003.184 1901.492 2048.637 C 1853.647 2073.637, 1806.175 2098.402, 1796 2103.670 C 1785.825 2108.939, 1774.350 2114.942, 1770.500 2117.010 C 1764.221 2120.384, 1742.115 2131.924, 1703 2152.247 C 1695.575 2156.105, 1685.900 2161.170, 1681.500 2163.504 C 1677.100 2165.838, 1667.200 2171.013, 1659.500 2175.004 C 1651.800 2178.995, 1641.900 2184.168, 1637.500 2186.499 C 1633.100 2188.829, 1623.875 2193.667, 1617 2197.249 C 1610.125 2200.831, 1588.300 2212.222, 1568.500 2222.563 C 1548.700 2232.904, 1525.513 2244.995, 1516.974 2249.432 C 1508.434 2253.870, 1489.001 2264.003, 1473.788 2271.952 L 1446.128 2286.404 1431.614 2327.952 C 1356.187 2543.879, 1341.082 2587.488, 1339.461 2594 C 1336.865 2604.428, 1337.021 2620.653, 1339.828 2632.209 C 1345.958 2657.450, 1362.945 2679.065, 1385.500 2690.325 C 1389.350 2692.247, 1417.250 2702.449, 1447.500 2712.996 C 1477.750 2723.544, 1516.675 2737.122, 1534 2743.169 C 1551.325 2749.217, 1585.525 2761.139, 1610 2769.661 C 1634.475 2778.184, 1658.325 2786.505, 1663 2788.153 C 1667.675 2789.800, 1710.875 2804.882, 1759 2821.668 C 1857.816 2856.134, 1871.393 2860.872, 2003.500 2906.988 C 2055.750 2925.228, 2128.200 2950.509, 2164.500 2963.167 C 2200.800 2975.826, 2249.175 2992.703, 2272 3000.672 C 2294.825 3008.641, 2338.025 3023.713, 2368 3034.167 C 2397.975 3044.620, 2431.275 3056.233, 2442 3059.974 C 2466.628 3068.563, 2470.753 3069.450, 2485.500 3069.327 C 2500.371 3069.204, 2509.549 3066.974, 2523.500 3060.096 C 2540.883 3051.527, 2553.935 3038.568, 2562.376 3021.500 C 2564.823 3016.550, 2572.993 2994.725, 2580.531 2973 C 2599.751 2917.604, 2623.356 2849.892, 2682.673 2680 C 2747.890 2493.208, 2795.386 2357.100, 2801.493 2339.500 C 2807.883 2321.084, 2835.156 2242.934, 2883.676 2104 C 2891.647 2081.175, 2906.640 2038.200, 2916.993 2008.500 C 2936.208 1953.375, 2942.811 1934.453, 2962.181 1879 C 2968.233 1861.675, 2981.421 1823.875, 2991.489 1795 C 3021.719 1708.298, 3106.479 1465.439, 3116.564 1436.626 C 3127.155 1406.368, 3129 1398.890, 3129 1386.226 C 3129 1367.722, 3123.705 1350.777, 3112.992 1335 C 3105.009 1323.243, 3088.043 1309.652, 3075 1304.565 C 3071.053 1303.026, 2918.693 1249.830, 2175.244 990.416 C 2054.420 948.256, 2002.485 930.572, 1996.363 929.504 C 1985.938 927.686, 1977.098 927.710, 1966.734 929.584 M 2629 1025.439 C 2585.825 1029.478, 2525.088 1035.106, 2494.028 1037.946 C 2462.969 1040.786, 2437.406 1043.261, 2437.221 1043.445 C 2437.037 1043.630, 2440.174 1044.903, 2444.193 1046.274 C 2448.212 1047.645, 2509.100 1068.878, 2579.500 1093.458 C 2649.900 1118.038, 2730.132 1146.046, 2757.794 1155.697 C 2785.456 1165.349, 2808.314 1173.019, 2808.590 1172.743 C 2809.620 1171.714, 2801.907 1093.387, 2800.030 1085.806 C 2795.958 1069.363, 2790.246 1058.725, 2779.079 1046.789 C 2766.687 1033.544, 2752.968 1025.222, 2736.500 1020.962 C 2721.779 1017.154, 2714.197 1017.469, 2629 1025.439 M 1788.500 1102.585 C 1775.300 1103.852, 1724.675 1108.529, 1676 1112.977 C 1627.325 1117.426, 1584.957 1121.513, 1581.848 1122.059 C 1549.690 1127.710, 1522.042 1152.976, 1512.971 1185 C 1509.066 1198.786, 1509.295 1208.787, 1514.903 1269.500 C 1519.177 1315.759, 1526.251 1392.780, 1535.983 1499 C 1537.066 1510.825, 1541.567 1559.875, 1545.985 1608 C 1550.403 1656.125, 1555.156 1708.325, 1556.546 1724 C 1557.936 1739.675, 1559.395 1753.673, 1559.787 1755.106 L 1560.500 1757.712 1579.681 1747.591 C 1590.231 1742.025, 1599.117 1737.216, 1599.428 1736.905 C 1599.739 1736.595, 1624.555 1665.951, 1654.575 1579.920 C 1789.790 1192.426, 1820.877 1103.386, 1821.523 1101.750 C 1822.414 1099.492, 1820.102 1099.551, 1788.500 1102.585 M 2522.627 1495.012 C 2499.330 1499.248, 2468.736 1511.949, 2461.197 1520.514 C 2453.771 1528.950, 2451.987 1541.174, 2456.805 1550.617 C 2459.756 1556.402, 2466.786 1562.436, 2472.966 1564.489 C 2481.393 1567.288, 2487.152 1566.190, 2500.872 1559.168 C 2521.647 1548.536, 2539.177 1544.266, 2557.809 1545.300 C 2581.154 1546.594, 2601.594 1555.557, 2617.519 1571.481 C 2627.740 1581.703, 2633.548 1591.179, 2638.904 1606.375 C 2648.794 1634.434, 2646.638 1667.417, 2632.655 1702.001 C 2623.942 1723.552, 2609.614 1744.216, 2588.020 1766.373 C 2562.825 1792.226, 2546.010 1805.168, 2481.928 1848.025 C 2422.159 1887.998, 2402.615 1902.768, 2378.107 1926.478 C 2351.814 1951.916, 2335.015 1977.120, 2327.436 2002.500 C 2323.864 2014.464, 2322.866 2036.820, 2325.398 2048.157 C 2331.352 2074.809, 2348.534 2095.134, 2376.500 2108.606 C 2394.266 2117.164, 2412.199 2121, 2434.441 2121 C 2448.668 2121, 2458.435 2119.475, 2480 2113.886 C 2498.725 2109.033, 2510.320 2107.949, 2517.611 2110.371 C 2524.450 2112.642, 2529.371 2117.015, 2532.665 2123.749 C 2535.125 2128.776, 2535.459 2130.592, 2535.464 2138.978 C 2535.475 2155.350, 2531.120 2166.028, 2515.062 2189 C 2501.038 2209.063, 2498.510 2213.021, 2494.030 2221.936 C 2477.959 2253.916, 2483.406 2294.118, 2507.266 2319.625 C 2522.549 2335.962, 2543.173 2345.465, 2566 2346.686 C 2577.455 2347.299, 2591.295 2345.347, 2595.629 2342.508 C 2598.618 2340.549, 2598.673 2337.475, 2595.750 2335.612 C 2593.809 2334.375, 2592.606 2334.369, 2587 2335.568 C 2565.006 2340.273, 2539.064 2332.879, 2521.616 2316.932 C 2501.701 2298.730, 2493.780 2266.761, 2502.744 2240.756 C 2506.333 2230.342, 2511.820 2221.345, 2526.454 2201.882 C 2545.694 2176.289, 2551.887 2163.674, 2553.884 2146 C 2556.921 2119.125, 2546.480 2099.562, 2524.500 2090.942 C 2519.235 2088.877, 2516.845 2088.592, 2505 2088.614 C 2493.115 2088.636, 2489.586 2089.076, 2475.500 2092.286 C 2452.287 2097.576, 2446.178 2098.340, 2432.500 2097.659 C 2381.612 2095.125, 2346.725 2063.527, 2352.031 2024.776 C 2356.991 1988.546, 2389.052 1951.711, 2452.607 1909.222 C 2460.916 1903.668, 2482.966 1889.721, 2501.607 1878.230 C 2565.973 1838.551, 2588.978 1822.054, 2616.493 1795.845 C 2664.859 1749.772, 2691.044 1694.395, 2690.992 1638.289 C 2690.969 1613.376, 2685.929 1591.660, 2675.027 1569.500 C 2656.677 1532.199, 2622.470 1505.856, 2579.500 1495.935 C 2565.918 1492.799, 2537.345 1492.335, 2522.627 1495.012 M 2001.833 1636.802 L 1832.166 1663.408 1831.520 1667.713 C 1829.790 1679.253, 1824.577 1690.500, 1811.806 1710.246 C 1799.296 1729.588, 1797.515 1733.678, 1797.507 1743.071 C 1797.501 1749.530, 1797.943 1751.508, 1800.518 1756.542 C 1806.113 1767.484, 1814.185 1771.647, 1840.170 1776.996 C 1868.524 1782.832, 1878.418 1787.171, 1890.085 1798.885 C 1903.216 1812.067, 1909.955 1829.410, 1908.633 1846.614 C 1907.855 1856.739, 1904.780 1866.768, 1896.318 1886.786 C 1892.764 1895.193, 1889.171 1905.433, 1888.333 1909.543 C 1886.886 1916.638, 1886.913 1917.354, 1888.865 1923.780 C 1891.081 1931.078, 1895.701 1937.416, 1901.349 1940.907 C 1907.181 1944.511, 1915.710 1945.912, 1938 1946.927 C 1960.765 1947.964, 1970.058 1949.591, 1980.483 1954.364 C 1985.414 1956.621, 1985.711 1956.647, 1987.098 1954.938 C 1988.418 1953.310, 2011.112 1929.525, 2037.999 1901.590 C 2043.775 1895.589, 2049.175 1889.941, 2050 1889.039 C 2051.754 1887.120, 2063.517 1874.848, 2096.046 1841 C 2108.996 1827.525, 2130.344 1805.250, 2143.487 1791.500 C 2156.630 1777.750, 2172.135 1761.535, 2177.942 1755.467 C 2183.749 1749.399, 2196.600 1735.966, 2206.500 1725.616 C 2216.400 1715.266, 2224.655 1706.378, 2224.845 1705.865 C 2225.034 1705.352, 2222.109 1701.675, 2218.345 1697.694 C 2197.181 1675.316, 2183.383 1647.200, 2176.411 1612.250 C 2176.098 1610.681, 2175.286 1610.030, 2173.731 1610.098 C 2172.504 1610.152, 2095.150 1622.169, 2001.833 1636.802 M 1785.500 1678.380 C 1782.200 1680.223, 1753.175 1695.455, 1721 1712.230 C 1605.374 1772.514, 826.252 2179.334, 815.216 2185.187 L 803.931 2191.171 808.364 2199.335 C 810.802 2203.826, 823.125 2227.300, 835.748 2251.500 C 848.372 2275.700, 872.782 2322.500, 889.993 2355.500 C 907.205 2388.500, 922.542 2417.750, 924.077 2420.500 C 927.020 2425.776, 940.460 2451.222, 951.105 2471.673 C 954.590 2478.368, 957.861 2483.586, 958.375 2483.268 C 958.889 2482.951, 958.999 2483.193, 958.620 2483.806 C 957.895 2484.979, 963.210 2496.394, 964.996 2497.497 C 965.568 2497.851, 972.215 2494.901, 979.768 2490.943 C 992.222 2484.415, 1018.427 2470.719, 1049 2454.758 C 1055.325 2451.456, 1061.108 2448.267, 1061.851 2447.671 C 1062.594 2447.075, 1063.719 2446.506, 1064.351 2446.406 C 1064.983 2446.306, 1073.600 2441.963, 1083.500 2436.754 C 1093.400 2431.545, 1106.551 2424.683, 1112.725 2421.506 C 1119.057 2418.247, 1123.676 2415.284, 1123.321 2414.710 C 1122.959 2414.125, 1123.186 2413.997, 1123.852 2414.408 C 1124.491 2414.804, 1131.187 2411.891, 1138.756 2407.925 C 1165.725 2393.796, 1173.017 2389.987, 1231 2359.738 C 1237.325 2356.439, 1246.550 2351.606, 1251.500 2348.999 C 1256.450 2346.392, 1265.981 2341.406, 1272.679 2337.919 C 1279.378 2334.433, 1284.596 2331.155, 1284.275 2330.635 C 1283.954 2330.116, 1284.208 2330.011, 1284.840 2330.401 C 1285.472 2330.792, 1290.154 2328.890, 1295.245 2326.175 C 1300.335 2323.460, 1321.600 2312.335, 1342.500 2301.454 C 1363.400 2290.572, 1386.800 2278.359, 1394.500 2274.313 C 1402.200 2270.268, 1411.743 2265.318, 1415.707 2263.314 C 1419.671 2261.311, 1422.639 2259.226, 1422.303 2258.681 C 1421.966 2258.137, 1422.185 2257.996, 1422.788 2258.369 C 1423.391 2258.742, 1436.173 2252.618, 1451.192 2244.761 C 1466.212 2236.904, 1481.503 2228.919, 1485.173 2227.017 C 1488.842 2225.115, 1491.585 2223.138, 1491.268 2222.625 C 1490.951 2222.111, 1491.180 2221.993, 1491.777 2222.362 C 1493.244 2223.269, 1500.074 2219.928, 1499.303 2218.681 C 1498.966 2218.136, 1499.177 2217.991, 1499.770 2218.358 C 1500.364 2218.725, 1504.821 2216.875, 1509.675 2214.248 C 1514.529 2211.621, 1521.054 2208.142, 1524.175 2206.518 C 1527.296 2204.894, 1529.589 2203.143, 1529.270 2202.628 C 1528.952 2202.113, 1529.212 2202.013, 1529.848 2202.406 C 1530.808 2202.999, 1552.815 2192.228, 1568.500 2183.487 C 1570.700 2182.261, 1580.600 2177.088, 1590.500 2171.991 C 1608.227 2162.864, 1618.715 2157.369, 1632.500 2149.985 C 1636.350 2147.923, 1646.700 2142.526, 1655.500 2137.991 C 1671.626 2129.682, 1686.927 2121.719, 1703.500 2113.011 C 1729.060 2099.581, 1757.687 2084.680, 1768 2079.438 C 1772.125 2077.341, 1777.300 2074.493, 1779.500 2073.109 C 1781.700 2071.725, 1783.962 2070.514, 1784.527 2070.418 C 1785.092 2070.321, 1793.642 2065.974, 1803.527 2060.757 C 1813.412 2055.541, 1826.551 2048.675, 1832.725 2045.500 C 1839.058 2042.244, 1843.676 2039.284, 1843.321 2038.710 C 1842.958 2038.123, 1843.186 2037.997, 1843.858 2038.412 C 1844.507 2038.813, 1851.353 2035.819, 1859.263 2031.675 C 1867.093 2027.572, 1878 2021.872, 1883.500 2019.008 C 1889 2016.143, 1906.965 2006.783, 1923.422 1998.207 C 1939.880 1989.631, 1952.930 1982.496, 1952.422 1982.350 C 1951.915 1982.205, 1942.050 1981.623, 1930.500 1981.058 C 1909.096 1980.012, 1900.873 1978.687, 1891.668 1974.806 C 1874.428 1967.536, 1860.858 1951.887, 1855.417 1933 C 1854.052 1928.265, 1853.571 1923.514, 1853.643 1915.500 C 1853.758 1902.761, 1855.902 1894.321, 1863.571 1876.421 C 1873.936 1852.229, 1875.691 1845.644, 1873.975 1837.381 C 1872.675 1831.120, 1868.424 1824.188, 1863.650 1820.546 C 1858.748 1816.808, 1849.179 1813.681, 1831.500 1810.042 C 1804.013 1804.384, 1793.730 1799.818, 1781.956 1788.044 C 1769.716 1775.804, 1762.982 1759.822, 1763.015 1743.090 C 1763.045 1727.641, 1767.639 1715.920, 1783.320 1691.283 C 1788.644 1682.918, 1793 1675.833, 1793 1675.537 C 1793 1674.478, 1791.410 1675.081, 1785.500 1678.380 M 2895.243 2180.613 C 2893.029 2187.151, 2881.224 2221.075, 2869.010 2256 C 2856.796 2290.925, 2843.520 2328.950, 2839.507 2340.500 C 2835.494 2352.050, 2818.701 2400.200, 2802.189 2447.500 C 2785.677 2494.800, 2767.225 2547.675, 2761.184 2565 C 2755.144 2582.325, 2744.539 2612.700, 2737.617 2632.500 C 2679.020 2800.116, 2645.199 2897.532, 2645.499 2897.832 C 2645.695 2898.028, 2661.301 2896.791, 2680.178 2895.083 C 2699.055 2893.374, 2729.575 2890.617, 2748 2888.956 C 2814.535 2882.958, 2878.592 2876.993, 2883 2876.384 C 2891.126 2875.262, 2905.357 2870.131, 2913.344 2865.444 C 2922.364 2860.151, 2935.550 2848.015, 2940.990 2840 C 2949.084 2828.074, 2954.216 2815.028, 2956.195 2801.342 C 2957.628 2791.425, 2957.544 2790.210, 2949.036 2698 C 2945.712 2661.975, 2941.431 2615.400, 2939.524 2594.500 C 2932.369 2516.117, 2917.879 2358.537, 2915.479 2333 C 2909.307 2267.338, 2902.066 2188.711, 2901.435 2180.500 C 2901.054 2175.550, 2900.411 2170.876, 2900.005 2170.113 C 2899.545 2169.248, 2897.755 2173.192, 2895.243 2180.613 M 747.492 2220.634 C 733.196 2228.086, 715.970 2237.102, 709.211 2240.668 L 696.922 2247.153 701.345 2255.327 C 703.778 2259.822, 729.942 2309.850, 759.487 2366.500 C 789.031 2423.150, 816.469 2475.575, 820.460 2483 C 824.451 2490.425, 830.646 2502.125, 834.226 2509 C 837.807 2515.875, 844.427 2528.581, 848.939 2537.235 C 853.450 2545.889, 857.564 2553.231, 858.081 2553.550 C 858.597 2553.869, 865.653 2550.666, 873.760 2546.432 C 881.867 2542.197, 898.400 2533.563, 910.500 2527.244 C 922.600 2520.926, 932.859 2515.429, 933.298 2515.029 C 933.738 2514.630, 925.805 2498.372, 915.670 2478.902 C 846.526 2346.057, 774.643 2208.388, 774.113 2207.792 C 773.767 2207.403, 761.788 2213.181, 747.492 2220.634 M 610.746 2291.934 C 580.631 2307.729, 552.870 2322.786, 549.054 2325.393 C 531.555 2337.349, 517.594 2357.805, 511.885 2379.854 C 508.264 2393.837, 508.413 2417.337, 512.183 2426.878 C 513.108 2429.221, 513.426 2428.488, 515.167 2420 C 519.550 2398.624, 530.441 2378.543, 546.017 2363.121 C 557.818 2351.436, 560.836 2349.628, 621 2318.209 C 670.085 2292.575, 678.472 2288.085, 678.734 2287.299 C 679.111 2286.167, 667.073 2262.967, 666.182 2263.108 C 665.807 2263.167, 640.861 2276.139, 610.746 2291.934 M 1658.360 2830.750 C 1658.700 2833.912, 1659.666 2844.825, 1660.507 2855 C 1663.260 2888.318, 1665.067 2905.400, 1666.494 2911.591 C 1672.818 2939.033, 1691.532 2961.453, 1717.631 2972.853 C 1732.927 2979.534, 1746.296 2980.962, 1771.500 2978.605 C 1780.850 2977.730, 1822.475 2973.876, 1864 2970.040 C 2001.102 2957.374, 2026.485 2955.003, 2028 2954.725 C 2028.825 2954.574, 2025.450 2953.031, 2020.500 2951.296 C 1996.005 2942.712, 1903.533 2910.435, 1873.500 2899.986 C 1854.800 2893.480, 1798.816 2873.947, 1749.091 2856.579 C 1699.366 2839.210, 1658.471 2825, 1658.212 2825 C 1657.953 2825, 1658.020 2827.588, 1658.360 2830.750" stroke="none" fill="black" fill-rule="evenodd"/>
</svg>